<?xml version="1.0" standalone="no"?>
<!DOCTYPE svg PUBLIC "-//W3C//DTD SVG 20010904//EN"
 "http://www.w3.org/TR/2001/REC-SVG-20010904/DTD/svg10.dtd">
<svg version="1.0" xmlns="http://www.w3.org/2000/svg"
 width="189.000000pt" height="256.000000pt" viewBox="0 0 189.000000 256.000000"
 preserveAspectRatio="xMidYMid meet">

<g transform="translate(0.000000,256.000000) scale(0.100000,-0.100000)"
fill="#000000" stroke="none">
<path d="M1226 1705 c-11 -8 -18 -17 -15 -19 2 -2 15 4 28 15 27 22 15 26 -13
4z"/>
<path d="M1170 1670 c-9 -6 -10 -10 -3 -10 6 0 15 5 18 10 8 12 4 12 -15 0z"/>
<path d="M1113 1645 c0 -8 4 -15 9 -15 4 0 8 4 8 9 0 6 -4 12 -8 15 -5 3 -9
-1 -9 -9z"/>
<path d="M160 1312 c0 -25 15 -46 78 -109 67 -69 87 -82 155 -107 78 -29 87
-39 67 -76 -9 -17 -4 -21 54 -39 35 -11 80 -23 100 -26 20 -4 38 -11 41 -15 2
-4 -4 -32 -15 -63 -13 -37 -20 -82 -20 -131 l0 -75 -52 23 c-29 13 -67 30 -85
37 -18 7 -36 23 -42 34 -8 16 -9 13 -5 -15 34 -216 208 -392 422 -424 l42 -6
-43 54 c-60 72 -82 134 -82 221 1 91 30 159 96 220 26 25 52 45 57 45 19 0 78
-47 109 -88 89 -117 76 -287 -30 -399 -27 -29 -45 -53 -38 -53 7 0 43 7 81 16
160 36 305 170 359 332 23 67 28 109 11 82 -5 -8 -10 -10 -10 -5 0 6 -3 6 -8
0 -4 -6 -39 -25 -78 -42 l-71 -31 -6 87 c-3 53 -13 106 -26 139 -11 29 -21 54
-21 55 0 1 19 3 43 3 23 1 54 8 69 16 l28 15 -29 31 c-16 16 -28 32 -26 34 2
2 -19 19 -46 38 -28 19 -66 48 -86 65 -32 26 -35 27 -29 8 5 -15 2 -25 -11
-32 -13 -7 -14 -10 -4 -11 8 0 12 -3 8 -6 -3 -3 -2 -17 3 -30 5 -13 8 -24 5
-24 -2 0 -43 27 -92 59 -80 54 -299 171 -319 171 -5 0 -31 12 -58 26 -26 14
-50 23 -53 21 -2 -3 5 -11 17 -17 12 -6 30 -20 41 -31 16 -16 200 -109 215
-109 13 0 92 -59 87 -64 -4 -4 -1 -5 7 -2 17 7 83 -51 75 -65 -4 -5 -1 -9 5
-9 7 0 9 -7 6 -16 -4 -9 -2 -22 4 -29 6 -7 10 -17 9 -21 -4 -25 2 -36 19 -29
14 5 15 4 5 -6 -20 -20 -15 -31 7 -19 12 6 33 10 48 8 21 -2 30 -12 44 -48 20
-54 25 -209 6 -228 -22 -22 -38 -13 -38 21 0 54 -29 138 -67 194 -19 29 -32
57 -28 63 4 7 0 10 -11 8 -12 -2 -18 2 -16 10 1 8 -2 11 -7 7 -6 -3 -29 6 -52
21 -75 47 -405 174 -452 174 -61 0 -272 100 -330 156 l-37 36 0 -30z m995
-272 c3 -5 1 -10 -4 -10 -6 0 -11 5 -11 10 0 6 2 10 4 10 3 0 8 -4 11 -10z
m-394 -121 c19 -7 35 -13 37 -14 1 -1 -13 -25 -32 -53 -37 -56 -56 -124 -56
-204 l0 -51 -25 29 c-13 15 -27 47 -31 70 -7 51 12 180 32 212 16 25 27 27 75
11z"/>
<path d="M1670 1303 c-39 -38 -209 -125 -281 -144 l-47 -13 16 -34 c16 -33 16
-35 -7 -53 -14 -12 -21 -25 -17 -35 5 -13 9 -14 21 -4 8 7 15 20 15 29 0 12
16 20 56 29 80 19 166 74 223 142 27 32 51 57 53 55 2 -3 5 11 6 30 2 19 1 35
0 34 -2 -1 -19 -17 -38 -36z"/>
<path d="M1010 1036 c0 -2 7 -7 16 -10 8 -3 12 -2 9 4 -6 10 -25 14 -25 6z"/>
</g>
</svg>
